<svg xmlns="http://www.w3.org/2000/svg" viewBox="0 0 24 24"
    style="min-width: 2rem; max-width: 2rem; width: 2rem; min-height: 2rem; max-height: 2rem; height: 2rem;">
    <path
        d="M20.766 8.07H16.17l1.652-1.689c.609-.622.944-1.45.944-2.333 0-.882-.335-1.71-.944-2.333A3.175 3.175 0 0 0 15.537.75h-.005a3.164 3.164 0 0 0-2.28.968L8.68 6.416a1.161 1.161 0 0 0-1.14-1.002H1.154C.517 5.414 0 5.942 0 6.594V22.07c0 .651.517 1.179 1.154 1.179H7.54c.637 0 1.154-.528 1.154-1.18v-.392h8.192c1.18 0 2.23-.626 2.81-1.674l3.88-7.01a3.33 3.33 0 0 0-.02-3.287c-.585-1.026-1.628-1.638-2.79-1.638zM2.308 20.891V7.772h4.078v13.12H2.308zm19.26-9.06l-3.88 7.01a.874.874 0 0 1-.802.478H8.694v-4.483l.002-5.094L14.89 3.38c.17-.175.4-.272.645-.272h.002c.248 0 .48.097.653.275.359.367.359.964 0 1.331l-3.622 3.7c-.33.338-.428.845-.25 1.285.179.44.6.728 1.066.728h7.382c.346 0 .622.162.796.467.174.306.176.63.006.939z"
        style="fill: #fff;"></path>
</svg>