<svg xmlns="http://www.w3.org/2000/svg" viewBox="0 0 16 16"
    style="min-width: 2rem; max-width: 2rem; width: 2rem; min-height: 2rem; max-height: 2rem; height: 2rem;">
    <path
        d="M5.1 10.7l-.4-1a.7.7 0 00-.4-.3L3 8.7a.7.7 0 01-.4-.9L3 6.2a.7.7 0 000-.5l-.5-1.6a.7.7 0 01.4-.9l1.4-.8a.7.7 0 00.4-.3L5.4.6a.7.7 0 01.9-.4l1.5.6a.7.7 0 00.4 0L9.7.2a.7.7 0 011 .4l.7 1.5a.7.7 0 00.3.3l1.4.8a.7.7 0 01.4.9L13 5.7a.7.7 0 000 .5l.5 1.6a.7.7 0 01-.4.9l-1.4.7a.7.7 0 00-.3.4l-.5.9v5l-2.9-1-2.9 1v-5zm1.5.8v2.1l1.4-.4 1.5.5v-2.2l-1.3-.4a.7.7 0 00-.4 0l-1.2.4zM10 9.1c.2-.4.5-.7.9-1l1-.4-.4-1.1a2.2 2.2 0 010-1.3l.3-1-1-.6a2.2 2.2 0 01-.8-1l-.5-.9-.9.3a2.2 2.2 0 01-1.4 0l-.9-.3-.4 1a2.2 2.2 0 01-1 1l-.9.4.3 1a2.2 2.2 0 010 1.4l-.3 1 1 .6c.3.2.7.5.9 1l.4.9.9-.4a2.2 2.2 0 011.4 0l.9.4.5-1zM8 3.8c.3 0 .6.3.6.7v2.9a.7.7 0 11-1.4 0v-3c0-.3.3-.6.7-.6z"
        style="fill: #fff;"></path>
</svg>