<svg xmlns="http://www.w3.org/2000/svg" viewBox="0 0 24 24"
    style="min-width: 2rem; max-width: 2rem; width: 2rem; min-height: 2rem; max-height: 2rem; height: 2rem;">
    <path
        d="M0 23.175V.825A.84.84 0 0 1 .852 0h22.296c.47 0 .852.37.852.825v22.35a.84.84 0 0 1-.852.825H.852A.84.84 0 0 1 0 23.175zM1.704 1.65v13.331h1.81c.005-1.71.038-3.192.277-4.33.092-.437.319-1.511 1.156-2.22a3.461 3.461 0 0 1-.758-2.159c0-1.957 1.643-3.549 3.663-3.549 2.02 0 3.663 1.592 3.663 3.55 0 .335-.049.66-.14.967l1.7-.976a.873.873 0 0 1 1.037.126l.165.16 5.04-3.662a.87.87 0 0 1 1.193.165.809.809 0 0 1-.17 1.156l-4.845 3.52.023.023c.16.156.25.366.25.586-.001.22-.092.43-.253.584l-3.269 3.142v2.917h10.05V1.651H1.704zm6.148 6.521c1.08 0 1.96-.852 1.96-1.899 0-1.046-.88-1.898-1.96-1.898s-1.96.852-1.96 1.898c0 1.047.88 1.899 1.96 1.899zm-2.391 2.81c-.208.99-.238 2.381-.242 4h5.323v-3.26c0-.22.091-.432.252-.587l2.914-2.8-.333-.323-2.952 1.695a.873.873 0 0 1-.434.116H5.928c-.184.225-.346.583-.467 1.16zm16.835 5.65H1.704v5.717h20.592v-5.716zm-1.657 1.94c.47 0 .852.37.852.826a.84.84 0 0 1-.852.826H6.906v.254a.84.84 0 0 1-.852.825.839.839 0 0 1-.852-.825v-.254h-1.84a.839.839 0 0 1-.853-.826c0-.456.382-.825.852-.825h1.84v-.254c0-.456.382-.826.853-.826.47 0 .852.37.852.826v.254h13.733z"
        style="fill: #fff;"></path>
</svg>