<svg xmlns="http://www.w3.org/2000/svg" viewBox="0 0 16 16"
    style="min-width: 1.6rem; max-width: 1.6rem; width: 1.6rem; min-height: 1.6rem; max-height: 1.6rem; height: 1.6rem;">
    <path
        d="M8 6.975c-1.762 0-3.195-1.452-3.195-3.237C4.805 1.952 6.238.5 8 .5c1.762 0 3.195 1.453 3.195 3.238S9.762 6.975 8 6.975zm0-5.019c-.97 0-1.758.8-1.758 1.782S7.031 5.519 8 5.519c.97 0 1.758-.8 1.758-1.781 0-.983-.789-1.782-1.758-1.782zm7.281 9.175c.397 0 .719.326.719.728v2.913a.723.723 0 0 1-.719.728H.72a.723.723 0 0 1-.72-.728v-2.913c0-.402.322-.728.719-.728h3.284v-.825c0-.033 0-.066.002-.1.05-1.097.988-1.99 2.07-1.99l3.828.002c1.121 0 2.097.945 2.094 2.092l-.002.821h1.466V8.57l-1.107-1.122a.735.735 0 0 1 0-1.03.712.712 0 0 1 1.016 0l1.318 1.335c.135.137.21.322.21.515v2.864h.383zm-9.841-.825v.825h5.118l.002-.825c.001-.35-.322-.631-.657-.631l-3.827-.002a.642.642 0 0 0-.636.633zm9.123 3.738v-1.457H1.437v1.457h13.126z"
        style="fill: #fff;"></path>
</svg>