<svg xmlns="http://www.w3.org/2000/svg" viewBox="0 0 16 16"
    style="min-width: 2rem; max-width: 2rem; width: 2rem; min-height: 2rem; max-height: 2rem; height: 2rem;">
    <path
        d="M7.76 8.19a.3.3 0 0 0 .18-.01L14.3 6.1l-6.3-2.05a.62.62 0 0 0-.32 0L1.72 6.08l6.04 2.1zm5.7-.23v3.61c0 1.36-2.56 1.93-5.46 1.93s-5.46-.57-5.46-1.93v-3.6L.98 7.43A1.4 1.4 0 0 1 0 6.08c0-.6.38-1.14.93-1.33L7.21 2.6a1.96 1.96 0 0 1 1.24-.01l6.6 2.15c.56.18.95.72.95 1.35a1.41 1.41 0 0 1-.95 1.34l-1.59.52zm-1.45.48L8.4 9.63a1.67 1.67 0 0 1-1.1 0L4 8.48v2.86l.03.02c.21.1.55.22.98.31a14.88 14.88 0 0 0 5.98 0c.43-.1.77-.2.98-.3l.04-.03v-2.9z"
        style="fill: #fff;"></path>
</svg>