<svg xmlns="http://www.w3.org/2000/svg" viewBox="0 0 16 16"
    style="min-width: 2rem; max-width: 2rem; width: 2rem; min-height: 2rem; max-height: 2rem; height: 2rem;">
    <path
        d="M2.4,5.6 C1.9581722,5.6 1.6,5.9581722 1.6,6.4 L1.6,12.8 C1.6,13.2418278 1.9581722,13.6 2.4,13.6 L13.6,13.6 C14.0418278,13.6 14.4,13.2418278 14.4,12.8 L14.4,6.4 C14.4,5.9581722 14.0418278,5.6 13.6,5.6 L2.4,5.6 Z M4,4 L4,3.2 C4,1.8745166 5.0745166,0.8 6.4,0.8 L9.6,0.8 C10.9254834,0.8 12,1.8745166 12,3.2 L12,4 L13.6,4 C14.9254834,4 16,5.0745166 16,6.4 L16,12.8 C16,14.1254834 14.9254834,15.2 13.6,15.2 L2.4,15.2 C1.0745166,15.2 1.623249e-16,14.1254834 0,12.8 L0,6.4 C-1.623249e-16,5.0745166 1.0745166,4 2.4,4 L4,4 Z M5.6,4 L10.4,4 L10.4,3.2 C10.4,2.7581722 10.0418278,2.4 9.6,2.4 L6.4,2.4 C5.9581722,2.4 5.6,2.7581722 5.6,3.2 L5.6,4 Z"
        style="fill: #fff;"></path>
</svg>