<svg xmlns="http://www.w3.org/2000/svg" viewBox="0 0 16 16"
    style="min-width: 2rem; max-width: 2rem; width: 2rem; min-height: 2rem; max-height: 2rem; height: 2rem;">
    <path
        d="M10.4 5.57H8.57V2.4a.8.8 0 0 0-.8-.8H5.6a.8.8 0 0 0-.8.8v4.74a.8.8 0 0 0 .77.8l1.55.05v5.92a.44.44 0 0 0 .84.17l3.17-7.39a.8.8 0 0 0-.73-1.12zm-.23-3.17v1.57h.23a2.4 2.4 0 0 1 2.2 3.35l-3.17 7.4a2.04 2.04 0 0 1-3.9-.81V9.54a2.4 2.4 0 0 1-2.33-2.4V2.4A2.4 2.4 0 0 1 5.6 0h2.17a2.4 2.4 0 0 1 2.4 2.4z"
        style="fill: #fff;"></path>
</svg>