<svg xmlns="http://www.w3.org/2000/svg" viewBox="0 0 16 16"
    style="min-width: 2rem; max-width: 2rem; width: 2rem; min-height: 2rem; max-height: 2rem; height: 2rem;">
    <path
        d="M9.228 11.2h3.504l-1.593-3.963L9.23 11.2zm4.147 1.6H8.456l-1.324 2.747a.799.799 0 1 1-1.44-.696L9.7 6.541a1.598 1.598 0 0 1 2.922.099l3.32 8.261a.8.8 0 0 1-1.483.597L13.375 12.8zM.819 0h6.392a.8.8 0 0 1 0 1.6H.819a.8.8 0 0 1 0-1.6zm0 4a.8.8 0 0 1 0-1.6h5.595a1.598 1.598 0 0 1 1.387 2.393C7.046 6.117 6.21 7.07 5.273 7.637 4.096 8.35 2.62 8.734.849 8.799A.799.799 0 0 1 .096 7.62a.799.799 0 0 1 .693-.42c1.517-.055 2.732-.37 3.655-.931.677-.41 1.34-1.164 1.97-2.27H.82z"
        style="fill: #fff;"></path>
</svg>