<svg xmlns="http://www.w3.org/2000/svg" viewBox="0 0 24 24"
    style="min-width: 2rem; max-width: 2rem; width: 2rem; min-height: 2rem; max-height: 2rem; height: 2rem;">
    <path
        d="M11.254 15.15H20.4a1.2 1.2 0 0 0 1.2-1.2v-9.6a1.2 1.2 0 0 0-1.2-1.2H3.6a1.2 1.2 0 0 0-1.2 1.2v9.6a1.2 1.2 0 0 0 1.2 1.2 1.2 1.2 0 0 1 1.2 1.2v3.616l6.454-4.816zM3.6.75h16.8a3.6 3.6 0 0 1 3.6 3.6v9.6a3.6 3.6 0 0 1-3.6 3.6h-8.35l-7.732 5.77a1.2 1.2 0 0 1-1.918-.963V17.55a2.4 2.4 0 0 1-2.4-2.4V4.35A3.6 3.6 0 0 1 3.6.75z"
        style="fill: #fff;"></path>
</svg>