<svg xmlns="http://www.w3.org/2000/svg" viewBox="0 0 16 16"
    style="min-width: 2rem; max-width: 2rem; width: 2rem; min-height: 2rem; max-height: 2rem; height: 2rem;">
    <path
        d="M5.6 14.4h4.8v-.8H5.6v.8zm.23-2.4A24.92 24.92 0 0 1 4.8 7.2a29.9 29.9 0 0 1 0-7.2h6.4c.25 2.66.25 5.06 0 7.2a26.18 26.18 0 0 1-1.03 4.8h.23a1.6 1.6 0 0 1 1.6 1.6V16H4v-2.4A1.6 1.6 0 0 1 5.6 12h.23zm.56-5c.22 1.85.6 3.51 1.14 5h.96A24.8 24.8 0 0 0 9.6 7.01c.19-1.63.23-3.43.1-5.41H6.26A28.36 28.36 0 0 0 6.4 7z"
        style="fill: #fff;"></path>
</svg>