<svg xmlns="http://www.w3.org/2000/svg" viewBox="0 0 16 16"
    style="min-width: 2rem; max-width: 2rem; width: 2rem; min-height: 2rem; max-height: 2rem; height: 2rem;">
    <path
        d="M1.3 6.6l1.9 1.8 4.2-4.2-1.9-1.9-4.2 4.3zm3 5.4l1.4-1.4a.7.7 0 011 0c.2.2.2.7 0 1l-1.5 1.3c.3.3.3.7 0 1l-1 .9a.7.7 0 01-.9 0l-.9-1a.7.7 0 010-.9l1-1a.7.7 0 01.9 0zm6-4.3l4.3-4.2-1-1-4.2 4.3c-.5-.5-.6-1.3-.2-1.7L13 1.4c.4-.4 1.2-.3 1.7.2l1 1c.5.5.6 1.2.1 1.7L12.1 8c-.4.4-1.2.3-1.7-.3zm-.5 2.6L6.5 7l-.5.5 3.3 3.3.5-.5zm1 1l-.6.4 1.2 1.2h.5v-.5l-1.2-1.1zM1.3 4.6a1 1 0 01.2-1l.9-1a1 1 0 011.1-.2l1-1a1.3 1.3 0 011.9 0l1.9 1.9c.5.5.5 1.3 0 1.9l-1 .9 5.4 5.4c.7.7.7 1.7 0 2.4a1.7 1.7 0 01-2.3 0L5 8.4l-1 1c-.5.5-1.3.5-1.8 0l-2-1.9a1.3 1.3 0 010-1.9l1-1z"
        style="fill: #fff;"></path>
</svg>