<svg xmlns="http://www.w3.org/2000/svg" viewBox="0 0 24 23"
    style="min-width: 1.8rem; max-width: 1.8rem; width: 1.8rem; min-height: 1.8rem; max-height: 1.8rem; height: 1.8rem;">
    <path
        d="M24 8.91c0-.35-.27-.58-.8-.66l-7.25-1.06-3.24-6.6C12.52.2 12.29 0 12 0s-.52.2-.7.6L8.04 7.18.8 8.25c-.54.08-.81.3-.81.66 0 .2.12.44.36.7l5.25 5.13-1.24 7.25a2.4 2.4 0 0 0-.03.29c0 .2.05.37.15.51.1.14.25.21.46.21.17 0 .36-.06.57-.17L12 19.4l6.48 3.42c.2.11.4.17.57.17a.5.5 0 0 0 .44-.21c.1-.14.15-.31.15-.52a2.2 2.2 0 0 0-.01-.29l-1.24-7.24 5.24-5.13c.25-.25.37-.49.37-.7z"
        style="fill: #919191;"></path>
</svg>