<svg xmlns="http://www.w3.org/2000/svg" viewBox="0 0 16 16"
    style="min-width: 2rem; max-width: 2rem; width: 2rem; min-height: 2rem; max-height: 2rem; height: 2rem;">
    <path
        d="M15 15.152a.836.836 0 0 1-.824.848.836.836 0 0 1-.823-.848v-1.59c0-1.287-1.014-2.33-2.265-2.33H4.912c-1.251 0-2.265 1.043-2.265 2.33v1.59a.836.836 0 0 1-.823.848.836.836 0 0 1-.824-.848v-1.59c0-2.223 1.751-4.026 3.912-4.026h6.176c2.16 0 3.912 1.803 3.912 4.027v1.59zM8 8.053c-2.16 0-3.912-1.803-3.912-4.027C4.088 1.803 5.84 0 8 0s3.912 1.803 3.912 4.026c0 2.224-1.752 4.027-3.912 4.027zm0-1.695c1.25 0 2.265-1.044 2.265-2.332 0-1.287-1.014-2.33-2.265-2.33-1.25 0-2.265 1.043-2.265 2.33C5.735 5.314 6.75 6.358 8 6.358z"
        style="fill: #fff;"></path>
</svg>