<svg xmlns="http://www.w3.org/2000/svg" viewBox="0 0 16 16"
    style="min-width: 2rem; max-width: 2rem; width: 2rem; min-height: 2rem; max-height: 2rem; height: 2rem;">
    <path
        d="M2.523 7.293l5.49 5.588 5.49-5.588c.654-.666.91-1.636.67-2.545a2.612 2.612 0 0 0-1.83-1.863 2.558 2.558 0 0 0-2.5.682l-1.83 1.862-1.83-1.861a2.556 2.556 0 0 0-3.645.015 2.668 2.668 0 0 0-.015 3.71zm4.88-4.968l.61.62.61-.62a4.263 4.263 0 0 1 4.174-1.152 4.353 4.353 0 0 1 3.058 3.112 4.444 4.444 0 0 1-1.132 4.248l-6.1 6.21a.855.855 0 0 1-1.22 0l-6.1-6.209a4.443 4.443 0 0 1-1.16-4.262 4.353 4.353 0 0 1 3.072-3.127 4.263 4.263 0 0 1 4.187 1.18z"
        style="fill: #fff;"></path>
</svg>